<svg width="40" height="40" viewBox="0 0 40 40" fill="none" xmlns="http://www.w3.org/2000/svg">
<path fill-rule="evenodd" clip-rule="evenodd" d="M26.6668 11.2507C25.5162 11.2507 24.5835 12.1834 24.5835 13.334C24.5835 14.4846 25.5162 15.4173 26.6668 15.4173C27.8174 15.4173 28.7502 14.4846 28.7502 13.334C28.7502 12.1834 27.8174 11.2507 26.6668 11.2507ZM22.0835 13.334C22.0835 10.8027 24.1355 8.75065 26.6668 8.75065C29.1981 8.75065 31.2502 10.8027 31.2502 13.334C31.2502 15.8653 29.1981 17.9173 26.6668 17.9173C24.1355 17.9173 22.0835 15.8653 22.0835 13.334Z" fill="#BBBBBB"/>
<path fill-rule="evenodd" clip-rule="evenodd" d="M19.9045 2.08398H20.0958C23.9431 2.08396 26.9582 2.08395 29.3107 2.40023C31.7185 2.72396 33.6186 3.39953 35.1099 4.89088C36.6013 6.38223 37.2769 8.28227 37.6006 10.6902C37.9169 13.0426 37.9169 16.0577 37.9168 19.905V20.0963C37.9169 23.9436 37.9169 26.9587 37.6006 29.3111C37.2769 31.719 36.6013 33.6191 35.1099 35.1104C33.6186 36.6018 31.7185 37.2773 29.3107 37.6011C26.9582 37.9174 23.9431 37.9173 20.0958 37.9173H19.9045C16.0572 37.9173 13.0422 37.9174 10.6897 37.6011C8.28178 37.2773 6.38174 36.6018 4.89039 35.1104C3.39904 33.6191 2.72347 31.719 2.39974 29.3111C2.08346 26.9587 2.08347 23.9436 2.0835 20.0963V19.905C2.08347 16.0577 2.08346 13.0426 2.39974 10.6902C2.72347 8.28227 3.39904 6.38223 4.89039 4.89088C6.38174 3.39953 8.28178 2.72396 10.6897 2.40023C13.0421 2.08395 16.0572 2.08396 19.9045 2.08398ZM6.65816 33.3427C5.70873 32.3932 5.16391 31.1087 4.87745 28.978C4.62165 27.0754 4.58843 24.6482 4.58413 21.4009L7.07593 19.2206C8.09946 18.325 9.64207 18.3763 10.6038 19.338L17.7533 26.4876C19.3282 28.0625 21.8073 28.2772 23.6296 26.9966L24.1266 26.6473C25.5569 25.6421 27.492 25.7586 28.7914 26.928L34.164 31.7633C34.2224 31.816 34.2845 31.862 34.3493 31.9016C34.0799 32.4698 33.748 32.9368 33.3422 33.3427C32.3927 34.2921 31.1082 34.8369 28.9775 35.1234C26.8109 35.4147 23.9639 35.4173 20.0002 35.4173C16.0365 35.4173 13.1894 35.4147 11.0228 35.1234C8.89212 34.8369 7.60758 34.2921 6.65816 33.3427ZM11.0228 4.87794C8.89212 5.1644 7.60758 5.70922 6.65816 6.65865C5.70873 7.60807 5.16391 8.89261 4.87745 11.0233C4.63556 12.8224 4.5927 15.0908 4.58512 18.0781L5.42968 17.3391C7.44372 15.5768 10.4792 15.6779 12.3715 17.5703L19.5211 24.7198C20.2369 25.4357 21.3638 25.5333 22.1921 24.9512L22.6891 24.6019C25.0729 22.9266 28.2981 23.1207 30.4638 25.0698L35.0871 29.2307C35.0994 29.1478 35.1114 29.0636 35.1229 28.978C35.4142 26.8114 35.4168 23.9644 35.4168 20.0007C35.4168 16.0369 35.4142 13.1899 35.1229 11.0233C34.8364 8.89261 34.2916 7.60807 33.3422 6.65865C32.3927 5.70922 31.1082 5.1644 28.9775 4.87794C26.8109 4.58664 23.9639 4.58399 20.0002 4.58399C16.0365 4.58399 13.1894 4.58664 11.0228 4.87794Z" fill="#BBBBBB"/>
</svg>
