<svg width="32" height="32" viewBox="0 0 32 32" fill="none" xmlns="http://www.w3.org/2000/svg">
<path fill-rule="evenodd" clip-rule="evenodd" d="M21.3332 8.99935C20.4127 8.99935 19.6665 9.74554 19.6665 10.666C19.6665 11.5865 20.4127 12.3327 21.3332 12.3327C22.2536 12.3327 22.9998 11.5865 22.9998 10.666C22.9998 9.74554 22.2536 8.99935 21.3332 8.99935ZM17.6665 10.666C17.6665 8.64097 19.3081 6.99935 21.3332 6.99935C23.3582 6.99935 24.9998 8.64097 24.9998 10.666C24.9998 12.6911 23.3582 14.3327 21.3332 14.3327C19.3081 14.3327 17.6665 12.6911 17.6665 10.666Z" fill="#BBBBBB"/>
<path fill-rule="evenodd" clip-rule="evenodd" d="M15.9233 1.66602H16.0763C19.1542 1.666 21.5662 1.66599 23.4482 1.91901C25.3745 2.178 26.8946 2.71845 28.0877 3.91153C29.2807 5.10461 29.8212 6.62464 30.0802 8.55096C30.3332 10.4329 30.3332 12.845 30.3332 15.9229V16.0758C30.3332 19.1537 30.3332 21.5658 30.0802 23.4477C29.8212 25.3741 29.2807 26.8941 28.0877 28.0872C26.8946 29.2802 25.3745 29.8207 23.4482 30.0797C21.5662 30.3327 19.1542 30.3327 16.0763 30.3327H15.9233C12.8455 30.3327 10.4334 30.3327 8.55144 30.0797C6.62513 29.8207 5.1051 29.2802 3.91202 28.0872C2.71894 26.8941 2.17849 25.3741 1.9195 23.4477C1.66647 21.5658 1.66649 19.1537 1.6665 16.0759V15.9228C1.66649 12.845 1.66647 10.4329 1.9195 8.55096C2.17849 6.62464 2.71894 5.10461 3.91202 3.91153C5.1051 2.71845 6.62513 2.178 8.55144 1.91901C10.4334 1.66599 12.8455 1.666 15.9233 1.66602ZM5.32623 26.673C4.56669 25.9134 4.13083 24.8858 3.90166 23.1812C3.69703 21.6592 3.67045 19.7174 3.66701 17.1195L5.66045 15.3753C6.47928 14.6588 7.71336 14.6999 8.48271 15.4693L14.2023 21.1889C15.4623 22.4488 17.4456 22.6206 18.9034 21.5961L19.301 21.3167C20.4452 20.5125 21.9933 20.6057 23.0328 21.5413L27.3309 25.4095C27.3776 25.4516 27.4273 25.4885 27.4791 25.5201C27.2636 25.9747 26.9981 26.3483 26.6734 26.673C25.9139 27.4325 24.8863 27.8684 23.1817 28.0975C21.4484 28.3306 19.1708 28.3327 15.9998 28.3327C12.8289 28.3327 10.5512 28.3306 8.81794 28.0975C7.1134 27.8684 6.08577 27.4325 5.32623 26.673ZM8.81794 3.90118C7.1134 4.13035 6.08577 4.5662 5.32623 5.32574C4.56669 6.08529 4.13083 7.11291 3.90166 8.81745C3.70815 10.2568 3.67387 12.0714 3.6678 14.4613L4.34345 13.8701C5.95468 12.4603 8.38305 12.5412 9.89692 14.055L15.6166 19.7747C16.1892 20.3474 17.0907 20.4255 17.7534 19.9598L18.151 19.6803C20.058 18.3401 22.6382 18.4954 24.3708 20.0547L28.0694 23.3834C28.0793 23.3171 28.0888 23.2497 28.098 23.1812C28.331 21.4479 28.3332 19.1703 28.3332 15.9993C28.3332 12.8284 28.331 10.5508 28.098 8.81745C27.8688 7.11291 27.433 6.08529 26.6734 5.32574C25.9139 4.5662 24.8863 4.13035 23.1817 3.90118C21.4484 3.66814 19.1708 3.66602 15.9998 3.66602C12.8289 3.66602 10.5512 3.66814 8.81794 3.90118Z" fill="#BBBBBB"/>
</svg>
