<svg width="48" height="56" viewBox="0 0 48 56" fill="none" xmlns="http://www.w3.org/2000/svg">
<circle cx="24" cy="24.6992" r="24" fill="#1B92FF"/>
<mask id="mask0_1_1489" style="mask-type:alpha" maskUnits="userSpaceOnUse" x="24" y="0" width="24" height="56">
<rect width="24" height="54.6" transform="matrix(1 0 0 -1 24 55.2988)" fill="#D9D9D9"/>
</mask>
<g mask="url(#mask0_1_1489)">
<path d="M0 24.6992C-3.8147e-06 44.4992 24 55.2992 24 55.2992C24 55.2992 48 44.4992 48 24.6992C48 11.4444 37.2548 0.699219 24 0.699219C10.7452 0.699219 0 11.4444 0 24.6992Z" fill="#1B92FF"/>
</g>
<rect x="30.0488" y="15.5879" width="6.72" height="18.24" rx="3.36" fill="#E9F4FF"/>
<rect x="18.3784" y="15.6211" width="6.72" height="18.24" rx="3.36" fill="#E9F4FF"/>
<rect opacity="0.8" x="21.7498" y="14.2148" width="6.72" height="23.1162" rx="3.36" transform="rotate(45.4799 21.7498 14.2148)" fill="#E9F4FF"/>
<rect opacity="0.8" x="38.0845" y="21.2988" width="6.62767" height="13.0558" rx="3.31383" transform="rotate(45.4799 38.0845 21.2988)" fill="#E9F4FF"/>
<rect opacity="0.8" x="33.4204" y="14.1816" width="6.79744" height="23.0326" rx="3.39872" transform="rotate(45.4799 33.4204 14.1816)" fill="#E9F4FF"/>
</svg>
